<svg width="100" height="20" viewBox="0 0 100 20" fill="none" xmlns="http://www.w3.org/2000/svg">
<path fill-rule="evenodd" clip-rule="evenodd" d="M0 2.961C0 4.41141 1.21343 5.58779 2.71152 5.58779C4.20961 5.58779 5.42394 4.41141 5.42394 2.961C5.42394 1.50972 4.20961 0.333344 2.71152 0.333344C1.21343 0.333344 0 1.50972 0 2.961Z" fill="#39C0BA"/>
<path fill-rule="evenodd" clip-rule="evenodd" d="M42.0698 9.91355C42.0698 11.364 43.2833 12.5403 44.7813 12.5403C46.2794 12.5403 47.4938 11.364 47.4938 9.91355C47.4938 8.46227 46.2794 7.28589 44.7813 7.28589C43.2833 7.28589 42.0698 8.46227 42.0698 9.91355Z" fill="white"/>
<path fill-rule="evenodd" clip-rule="evenodd" d="M24.422 15.9625H22.2719L14.7124 0.50753H9.6394V19.3927H13.1158V5.15192L20.0817 19.3927H27.8985L27.8993 0.47113H24.4229L24.422 15.9625Z" fill="white"/>
<mask id="mask0_0:138" style="mask-type:alpha" maskUnits="userSpaceOnUse" x="35" y="0" width="41" height="20">
<path d="M35.6023 0.693695H75.0424V19.3932H35.6023V0.693695Z" fill="white"/>
</mask>
<g mask="url(#mask0_0:138)">
<path fill-rule="evenodd" clip-rule="evenodd" d="M71.5659 4.1603V9.02915H65.3892L68.1008 4.1603H71.5659ZM57.7358 15.6313H39.2917L39.1283 4.1629H54.4386V0.696295H35.6023L35.8648 19.0979H59.7809L63.458 12.4958H71.5659V19.3934H75.0424V0.693695H66.0549L57.7358 15.6313Z" fill="white"/>
</g>
<path fill-rule="evenodd" clip-rule="evenodd" d="M85.5387 8.885V3.97369H93.8247C95.1832 3.97369 96.2869 5.0752 96.2869 6.42978C96.2869 7.78349 95.1832 8.885 93.8247 8.885H85.5387ZM93.8247 12.3516C97.0995 12.3516 99.7634 9.69532 99.7634 6.42978C99.7634 3.16423 97.0995 0.50708 93.8247 0.50708H82.0623V19.3932H85.5387V12.3516H86.9892L94.0159 19.3932H98.9203L91.8936 12.3516H93.8247Z" fill="white"/>
</svg>
