<svg width="73" height="15" viewBox="0 0 73 15" fill="none" xmlns="http://www.w3.org/2000/svg">
<path fill-rule="evenodd" clip-rule="evenodd" d="M0 2.36741C0 3.425 0.884791 4.28277 1.97715 4.28277C3.06951 4.28277 3.95496 3.425 3.95496 2.36741C3.95496 1.30919 3.06951 0.451408 1.97715 0.451408C0.884791 0.451408 0 1.30919 0 2.36741Z" fill="#39C0BA"/>
<path fill-rule="evenodd" clip-rule="evenodd" d="M30.6758 7.43704C30.6758 8.49463 31.5606 9.35241 32.6529 9.35241C33.7453 9.35241 34.6307 8.49463 34.6307 7.43704C34.6307 6.37882 33.7453 5.52104 32.6529 5.52104C31.5606 5.52104 30.6758 6.37882 30.6758 7.43704Z" fill="black"/>
<path fill-rule="evenodd" clip-rule="evenodd" d="M17.8077 11.8477H16.2399L10.7277 0.578467H7.02869V14.3489H9.56358V3.965L14.6429 14.3489H20.3426L20.3432 0.551926H17.8083L17.8077 11.8477Z" fill="black"/>
<mask id="mask0_0:1932" style="mask-type:alpha" maskUnits="userSpaceOnUse" x="25" y="0" width="30" height="15">
<path d="M25.96 0.71418H54.7183V14.3492H25.96V0.71418Z" fill="white"/>
</mask>
<g mask="url(#mask0_0:1932)">
<path fill-rule="evenodd" clip-rule="evenodd" d="M52.1835 3.24191V6.79212H47.6796L49.6568 3.24191H52.1835ZM42.099 11.6062H28.6501L28.531 3.24381H39.6947V0.716076H25.96L26.1513 14.1339H43.5902L46.2714 9.31985H52.1835V14.3494H54.7183V0.71418H48.165L42.099 11.6062Z" fill="black"/>
</g>
<path fill-rule="evenodd" clip-rule="evenodd" d="M62.3719 6.68708V3.10591H68.4139C69.4044 3.10591 70.2092 3.9091 70.2092 4.89681C70.2092 5.88389 69.4044 6.68708 68.4139 6.68708H62.3719ZM68.4139 9.21481C70.8017 9.21481 72.7441 7.27794 72.7441 4.89681C72.7441 2.51569 70.8017 0.578178 68.4139 0.578178H59.837V14.3493H62.3719V9.21481H63.4296L68.5533 14.3493H72.1294L67.0057 9.21481H68.4139Z" fill="black"/>
</svg>
